<svg xmlns="http://www.w3.org/2000/svg" width="28.007" height="28" viewBox="0 0 28.007 28">
  <g id="cancel_2_" data-name="cancel (2)" transform="translate(0 -0.07)">
    <g id="Group_229" data-name="Group 229" transform="translate(0 0.07)">
      <g id="Group_228" data-name="Group 228" transform="translate(0 0)">
        <path id="Path_1081" data-name="Path 1081" d="M23.912,4.165a14,14,0,1,0,0,19.808A14.025,14.025,0,0,0,23.912,4.165ZM22.378,22.439a11.837,11.837,0,1,1,0-16.74A11.851,11.851,0,0,1,22.378,22.439Z" transform="translate(0 -0.07)" fill="#fff"/>
      </g>
    </g>
    <g id="Group_231" data-name="Group 231" transform="translate(9.148 9.081)">
      <g id="Group_230" data-name="Group 230">
        <path id="Path_1082" data-name="Path 1082" d="M176.77,172.8l-3.072-3.067,3.072-3.067a1.085,1.085,0,1,0-1.534-1.535l-3.074,3.069-3.074-3.069a1.085,1.085,0,1,0-1.534,1.535l3.072,3.067-3.072,3.067a1.085,1.085,0,0,0,1.534,1.535l3.074-3.069,3.074,3.069a1.085,1.085,0,1,0,1.534-1.535Z" transform="translate(-167.236 -164.813)" fill="#fff"/>
      </g>
    </g>
  </g>
</svg>
