<svg id="email_2_" data-name="email (2)" xmlns="http://www.w3.org/2000/svg" width="21.724" height="16.548" viewBox="0 0 21.724 16.548">
  <g id="Group_522" data-name="Group 522" transform="translate(1.091 0)">
    <g id="Group_521" data-name="Group 521" transform="translate(0 0)">
      <path id="Path_4215" data-name="Path 4215" d="M44.444,61H26.539a1.887,1.887,0,0,0-.818.191l9.728,9.728,2.18-2.1h0l7.633-7.632A1.887,1.887,0,0,0,44.444,61Z" transform="translate(-25.721 -61)" fill="#fff"/>
    </g>
  </g>
  <g id="Group_524" data-name="Group 524" transform="translate(14.35 1.092)">
    <g id="Group_523" data-name="Group 523" transform="translate(0 0)">
      <path id="Path_4216" data-name="Path 4216" d="M345.4,86.728l-7.183,7.182,7.182,7.182a1.887,1.887,0,0,0,.191-.818V87.546A1.887,1.887,0,0,0,345.4,86.728Z" transform="translate(-338.213 -86.728)" fill="#fff"/>
    </g>
  </g>
  <g id="Group_526" data-name="Group 526" transform="translate(0 1.091)">
    <g id="Group_525" data-name="Group 525" transform="translate(0 0)">
      <path id="Path_4217" data-name="Path 4217" d="M.191,86.721A1.887,1.887,0,0,0,0,87.539v12.729a1.888,1.888,0,0,0,.191.818L7.374,93.9Z" transform="translate(0 -86.721)" fill="#fff"/>
    </g>
  </g>
  <g id="Group_528" data-name="Group 528" transform="translate(1.091 9.174)">
    <g id="Group_527" data-name="Group 527" transform="translate(0 0)">
      <path id="Path_4218" data-name="Path 4218" d="M38.073,277.211l-2.181,2.1a.636.636,0,0,1-.9,0l-2.1-2.1-7.183,7.182a1.887,1.887,0,0,0,.818.192H44.438a1.887,1.887,0,0,0,.818-.191Z" transform="translate(-25.714 -277.211)" fill="#fff"/>
    </g>
  </g>
</svg>
