<svg id="Component_1_3" data-name="Component 1 – 3" xmlns="http://www.w3.org/2000/svg" width="20.303" height="18.063" viewBox="0 0 20.303 18.063">
  <path id="heart" d="M10.151,18.063a1.191,1.191,0,0,1-.785-.295c-.82-.717-1.611-1.391-2.309-1.986l0,0a42.935,42.935,0,0,1-5.041-4.731A7.557,7.557,0,0,1,0,6.1,6.346,6.346,0,0,1,1.611,1.768,5.46,5.46,0,0,1,5.672,0a5.107,5.107,0,0,1,3.19,1.1,6.527,6.527,0,0,1,1.29,1.347A6.527,6.527,0,0,1,11.441,1.1,5.107,5.107,0,0,1,14.631,0a5.46,5.46,0,0,1,4.061,1.768A6.346,6.346,0,0,1,20.3,6.1a7.556,7.556,0,0,1-2.014,4.946,42.93,42.93,0,0,1-5.04,4.731c-.7.6-1.491,1.27-2.313,1.989a1.191,1.191,0,0,1-.785.295ZM5.672,1.189A4.283,4.283,0,0,0,2.485,2.574,5.162,5.162,0,0,0,1.189,6.1a6.358,6.358,0,0,0,1.74,4.188,42.251,42.251,0,0,0,4.9,4.585l0,0c.7.6,1.494,1.273,2.32,2,.831-.724,1.626-1.4,2.328-2a42.261,42.261,0,0,0,4.9-4.585A6.359,6.359,0,0,0,19.114,6.1a5.162,5.162,0,0,0-1.3-3.528,4.283,4.283,0,0,0-3.187-1.384,3.944,3.944,0,0,0-2.463.853A5.771,5.771,0,0,0,10.8,3.63a.751.751,0,0,1-1.29,0A5.766,5.766,0,0,0,8.134,2.042a3.944,3.944,0,0,0-2.462-.853Zm0,0" transform="translate(0 0)" fill="#fff"/>
  <path id="heart_1_" data-name="heart (1)" d="M18.693,1.768A5.459,5.459,0,0,0,14.632,0a5.108,5.108,0,0,0-3.19,1.1,6.527,6.527,0,0,0-1.29,1.347A6.523,6.523,0,0,0,8.862,1.1,5.107,5.107,0,0,0,5.672,0,5.46,5.46,0,0,0,1.611,1.768,6.346,6.346,0,0,0,0,6.1a7.557,7.557,0,0,0,2.014,4.947,42.939,42.939,0,0,0,5.041,4.731c.7.6,1.49,1.27,2.312,1.989a1.192,1.192,0,0,0,1.569,0c.822-.719,1.614-1.394,2.313-1.99a42.915,42.915,0,0,0,5.04-4.731A7.556,7.556,0,0,0,20.3,6.1a6.346,6.346,0,0,0-1.611-4.334Zm0,0" transform="translate(0 0)" fill="#fff" opacity="0"/>
</svg>
