<svg xmlns="http://www.w3.org/2000/svg" width="26.161" height="26.161" viewBox="0 0 26.161 26.161">
  <g id="instagram-sketched" transform="translate(0)">
    <path id="Path_23" data-name="Path 23" d="M212.007,209.5a2.5,2.5,0,1,1-2.5-2.5A2.5,2.5,0,0,1,212.007,209.5Zm0,0" transform="translate(-196.423 -196.423)" fill="#fff"/>
    <path id="Path_24" data-name="Path 24" d="M147.5,137.216a2.487,2.487,0,0,0-1.425-1.425,4.156,4.156,0,0,0-1.395-.258c-.792-.036-1.03-.044-3.035-.044s-2.243.008-3.035.044a4.158,4.158,0,0,0-1.395.259,2.488,2.488,0,0,0-1.426,1.425,4.157,4.157,0,0,0-.258,1.395c-.036.792-.044,1.029-.044,3.035s.008,2.243.044,3.035a4.156,4.156,0,0,0,.258,1.395,2.487,2.487,0,0,0,1.425,1.425,4.15,4.15,0,0,0,1.395.259c.792.036,1.029.044,3.035.044s2.243-.008,3.035-.044a4.15,4.15,0,0,0,1.395-.259,2.487,2.487,0,0,0,1.425-1.425,4.16,4.16,0,0,0,.259-1.395c.036-.792.044-1.03.044-3.035s-.008-2.243-.044-3.035A4.15,4.15,0,0,0,147.5,137.216Zm-5.855,8.287a3.857,3.857,0,1,1,3.857-3.857A3.857,3.857,0,0,1,141.643,145.5Zm4.009-6.965a.9.9,0,1,1,.9-.9A.9.9,0,0,1,145.652,138.538Zm0,0" transform="translate(-128.562 -128.566)" fill="#fff"/>
    <path id="Path_25" data-name="Path 25" d="M13.081,0A13.08,13.08,0,1,0,26.161,13.08,13.082,13.082,0,0,0,13.081,0Zm7.466,16.177A5.511,5.511,0,0,1,20.2,18,3.841,3.841,0,0,1,18,20.2a5.515,5.515,0,0,1-1.823.349c-.8.037-1.057.045-3.1.045s-2.3-.009-3.1-.045A5.515,5.515,0,0,1,8.161,20.2a3.841,3.841,0,0,1-2.2-2.2,5.509,5.509,0,0,1-.349-1.823c-.037-.8-.046-1.057-.046-3.1s.009-2.3.045-3.1A5.511,5.511,0,0,1,5.964,8.16a3.843,3.843,0,0,1,2.2-2.2,5.516,5.516,0,0,1,1.823-.349c.8-.037,1.057-.045,3.1-.045s2.3.009,3.1.046A5.517,5.517,0,0,1,18,5.964a3.842,3.842,0,0,1,2.2,2.2,5.51,5.51,0,0,1,.349,1.823c.037.8.045,1.057.045,3.1S20.583,15.376,20.546,16.177Zm0,0" transform="translate(0 0)" fill="#fff"/>
  </g>
</svg>
