<svg xmlns="http://www.w3.org/2000/svg" width="26.161" height="26.161" viewBox="0 0 26.161 26.161">
  <path id="linkedin" d="M13.081,0A13.08,13.08,0,1,0,26.161,13.08,13.082,13.082,0,0,0,13.081,0Zm-3.8,19.774H6.094V10.19H9.279ZM7.687,8.881H7.666a1.66,1.66,0,1,1,.042-3.312,1.661,1.661,0,1,1-.021,3.312Zm13.08,10.893H17.581V14.647c0-1.289-.461-2.167-1.614-2.167a1.744,1.744,0,0,0-1.634,1.165,2.182,2.182,0,0,0-.1.777v5.352H11.042s.042-8.685,0-9.584h3.186v1.357A3.163,3.163,0,0,1,17.1,9.965c2.1,0,3.668,1.37,3.668,4.314Zm0,0" fill="#fff"/>
</svg>
