<svg xmlns="http://www.w3.org/2000/svg" width="21.724" height="21.724" viewBox="0 0 21.724 21.724">
  <g id="phone-call" transform="translate(0)">
    <g id="Group_520" data-name="Group 520" transform="translate(0 0)">
      <path id="Path_4214" data-name="Path 4214" d="M18.541,3.18a10.862,10.862,0,1,0,3.183,7.679A10.862,10.862,0,0,0,18.541,3.18ZM16.45,15.13h0v0l-.55.547a2.9,2.9,0,0,1-2.734.782,9.625,9.625,0,0,1-2.8-1.253,12.914,12.914,0,0,1-2.2-1.778,13.014,13.014,0,0,1-1.647-2A10.137,10.137,0,0,1,5.279,8.922,2.9,2.9,0,0,1,6,5.964l.644-.644a.46.46,0,0,1,.65,0h0L9.334,7.355a.46.46,0,0,1,0,.65h0L8.139,9.2a.974.974,0,0,0-.1,1.267,13.973,13.973,0,0,0,1.43,1.669A13.888,13.888,0,0,0,11.35,13.72a.981.981,0,0,0,1.253-.109l1.155-1.173a.46.46,0,0,1,.65,0h0l2.038,2.042A.46.46,0,0,1,16.45,15.13Z" transform="translate(0 0)" fill="#fff"/>
    </g>
  </g>
</svg>
