<svg xmlns="http://www.w3.org/2000/svg" width="26.162" height="26.161" viewBox="0 0 26.162 26.161">
  <g id="pinterest" transform="translate(0)">
    <g id="Group_34" data-name="Group 34" transform="translate(0 0)">
      <path id="Path_26" data-name="Path 26" d="M19.647,1.764A12.8,12.8,0,0,0,13.081.01,12.8,12.8,0,0,0,6.515,1.764a13.025,13.025,0,0,0-4.76,4.76A12.8,12.8,0,0,0,0,13.091a12.678,12.678,0,0,0,2.163,7.2,13.033,13.033,0,0,0,5.672,4.786,11.261,11.261,0,0,1,.221-3.014l1.686-7.12a4.543,4.543,0,0,1-.426-2.078,3.9,3.9,0,0,1,.732-2.418,2.177,2.177,0,0,1,1.788-.971,1.6,1.6,0,0,1,1.312.562,2.159,2.159,0,0,1,.46,1.414,5.3,5.3,0,0,1-.2,1.286q-.2.758-.511,1.754t-.451,1.592a1.932,1.932,0,0,0,.392,1.78,2.082,2.082,0,0,0,1.669.741A3.425,3.425,0,0,0,17.5,16.582a9.718,9.718,0,0,0,1.167-4.923,4.83,4.83,0,0,0-1.439-3.628,5.521,5.521,0,0,0-4.011-1.4A6.2,6.2,0,0,0,6.779,12.9a3.876,3.876,0,0,0,.869,2.572.777.777,0,0,1,.187.732q-.034.1-.136.511c-.068.272-.114.449-.136.528q-.136.545-.647.341A3.843,3.843,0,0,1,4.923,15.7a6.809,6.809,0,0,1-.681-3.117A7.434,7.434,0,0,1,4.607,10.3,7.783,7.783,0,0,1,5.749,8.091,8.969,8.969,0,0,1,7.605,6.209,8.722,8.722,0,0,1,10.237,4.9,10.945,10.945,0,0,1,13.576,4.4a8.767,8.767,0,0,1,4.343,1.073,7.671,7.671,0,0,1,2.938,2.776A7.011,7.011,0,0,1,21.87,11.9a11.46,11.46,0,0,1-.886,4.6,7.553,7.553,0,0,1-2.5,3.211A6.136,6.136,0,0,1,14.8,20.874a4.035,4.035,0,0,1-1.942-.486,2.838,2.838,0,0,1-1.244-1.15q-.766,3.014-.92,3.594a10.485,10.485,0,0,1-1.329,2.793,13.08,13.08,0,0,0,10.279-1.209,13.026,13.026,0,0,0,4.761-4.761,12.8,12.8,0,0,0,1.754-6.566,12.8,12.8,0,0,0-1.754-6.566A13.031,13.031,0,0,0,19.647,1.764Z" transform="translate(0 -0.01)" fill="#fff"/>
    </g>
  </g>
</svg>
