<svg xmlns="http://www.w3.org/2000/svg" width="26.161" height="26.161" viewBox="0 0 26.161 26.161">
  <path id="twitter" d="M13.081,0A13.08,13.08,0,1,0,26.161,13.08,13.082,13.082,0,0,0,13.081,0Zm5.972,10.2q.009.193.009.388a8.484,8.484,0,0,1-8.542,8.542h0a8.5,8.5,0,0,1-4.6-1.349,6.106,6.106,0,0,0,.716.042,6.024,6.024,0,0,0,3.729-1.285,3.006,3.006,0,0,1-2.8-2.085A2.992,2.992,0,0,0,8.913,14.4,3,3,0,0,1,6.5,11.457c0-.014,0-.026,0-.038a2.982,2.982,0,0,0,1.36.375,3,3,0,0,1-.93-4.008,8.524,8.524,0,0,0,6.189,3.137A3,3,0,0,1,18.24,8.185a6.022,6.022,0,0,0,1.907-.729,3.014,3.014,0,0,1-1.32,1.661,5.988,5.988,0,0,0,1.724-.473,6.1,6.1,0,0,1-1.5,1.555Zm0,0" fill="#fff"/>
</svg>
