<svg xmlns="http://www.w3.org/2000/svg" width="16.307" height="17.477" viewBox="0 0 16.307 17.477">
  <g id="user_5_" data-name="user (5)" transform="translate(0.15 0.15)">
    <g id="Group_223" data-name="Group 223" transform="translate(0 9.675)">
      <g id="Group_222" data-name="Group 222">
        <path id="Path_1077" data-name="Path 1077" d="M25.443,288.389c-5.161,0-8,2.442-8,6.875a.627.627,0,0,0,.627.627H32.82a.627.627,0,0,0,.627-.627C33.447,290.831,30.6,288.389,25.443,288.389Zm-6.727,6.248c.247-3.315,2.507-4.994,6.727-4.994s6.48,1.679,6.727,4.994Z" transform="translate(-17.44 -288.389)" fill="#fff" stroke="#fff" stroke-width="0.3"/>
      </g>
    </g>
    <g id="Group_225" data-name="Group 225" transform="translate(3.845)">
      <g id="Group_224" data-name="Group 224">
        <path id="Path_1078" data-name="Path 1078" d="M136.207,0a4.108,4.108,0,0,0-4.158,4.242,4.172,4.172,0,1,0,8.317,0A4.109,4.109,0,0,0,136.207,0Zm0,7.5a3.1,3.1,0,0,1-2.9-3.26,2.851,2.851,0,0,1,2.9-2.988,2.882,2.882,0,0,1,2.9,2.988A3.1,3.1,0,0,1,136.207,7.5Z" transform="translate(-132.049)" fill="#fff" stroke="#fff" stroke-width="0.3"/>
      </g>
    </g>
  </g>
</svg>
