<svg xmlns="http://www.w3.org/2000/svg" width="25.837" height="25.836" viewBox="0 0 25.837 25.836">
  <g id="youtube_1_" data-name="youtube (1)" transform="translate(0)">
    <path id="Path_959" data-name="Path 959" d="M224.113,212.88l4.2-2.42-4.2-2.42Zm0,0" transform="translate(-212.804 -197.541)" fill="#fff"/>
    <path id="Path_960" data-name="Path 960" d="M12.918,0A12.918,12.918,0,1,0,25.837,12.918,12.92,12.92,0,0,0,12.918,0ZM20.99,12.931a21.321,21.321,0,0,1-.332,3.883,2.023,2.023,0,0,1-1.423,1.423,49.1,49.1,0,0,1-6.317.333A47.343,47.343,0,0,1,6.6,18.224,2.023,2.023,0,0,1,5.179,16.8a21.227,21.227,0,0,1-.333-3.883,21.307,21.307,0,0,1,.333-3.883A2.064,2.064,0,0,1,6.6,7.6a49.1,49.1,0,0,1,6.317-.333,47.243,47.243,0,0,1,6.317.346,2.023,2.023,0,0,1,1.423,1.423,20.233,20.233,0,0,1,.332,3.9Zm0,0" transform="translate(0 0)" fill="#fff"/>
  </g>
</svg>
